<svg width="160" height="30" viewBox="0 0 160 30" fill="none" xmlns="http://www.w3.org/2000/svg">
<g clip-path="url(#clip0_1370_2438)">
<path d="M59.5855 5.57227V24.4764H52.7819L46.2979 9.27089H45.9782V24.4764H41.8686V9.59053H39.1289V5.57227H47.2568C48.1472 5.57227 48.9006 6.05172 49.2887 6.89647L55.202 20.8006H55.4759V5.57227H59.5855Z" fill="white"/>
<path d="M61.7344 17.3998C61.7344 13.1989 64.9992 10.0254 69.3828 10.0254C73.7663 10.0254 77.0768 13.1989 77.0768 17.3998C77.0768 21.6007 73.7663 24.7742 69.3828 24.7742C64.9992 24.7742 61.7344 21.6007 61.7344 17.3998ZM73.0129 17.3998C73.0129 15.3679 71.4147 13.8153 69.3828 13.8153C67.3508 13.8153 65.7526 15.3679 65.7526 17.3998C65.7526 19.4318 67.3508 20.9843 69.3828 20.9386C71.4147 20.9843 73.0129 19.4318 73.0129 17.3998Z" fill="white"/>
<path d="M77.0078 10.2988H81.3457L85.1813 21.0294H85.4553L89.2909 10.2988H93.5375L88.058 24.4769H82.4416L77.0078 10.2988Z" fill="white"/>
<path d="M107.667 13.792V24.4769H103.923V23.0157H103.649C102.416 24.1573 100.772 24.7737 98.9227 24.7737C95.7949 24.7737 93.8086 22.9244 93.8086 20.3902C93.8086 17.5591 95.8406 16.0523 99.3794 16.0523H103.763V14.6824C103.763 14.1573 103.489 13.8833 102.964 13.8833H95.1556V10.2988H104.174C106.297 10.2988 107.667 11.6687 107.667 13.792ZM103.786 18.6778V18.518H100.041C98.4433 18.518 97.7812 19.1344 97.7812 20.1162C97.7812 21.0979 98.5803 21.8057 99.9501 21.8057C102.325 21.8285 103.786 20.276 103.786 18.6778Z" fill="white"/>
<path d="M127.371 11.5312C127.371 15.207 124.722 17.4901 120.704 17.4901H115.179V24.4764H110.887V5.57227H120.704C124.722 5.57227 127.371 7.90103 127.371 11.5312ZM122.987 11.5768C122.987 10.207 122.005 9.36222 120.476 9.36222H115.179V13.8599H120.476C121.983 13.8599 122.987 12.9924 122.987 11.5768Z" fill="white"/>
<path d="M141.75 13.792V24.4769H138.029V23.0157H137.755C136.522 24.1573 134.878 24.7737 133.029 24.7737C129.901 24.7737 127.938 22.9244 127.938 20.3902C127.938 17.5591 129.969 16.0523 133.508 16.0523H137.892V14.6824C137.892 14.1573 137.618 13.8833 137.093 13.8833H129.262V10.2988H138.28C140.38 10.2988 141.75 11.6687 141.75 13.792ZM137.869 18.6778V18.518H134.148C132.549 18.518 131.887 19.1344 131.887 20.1162C131.887 21.0979 132.686 21.8057 134.056 21.8057C136.408 21.8285 137.869 20.276 137.869 18.6778Z" fill="white"/>
<path d="M159.31 10.2988L153.077 26.6459C152.232 28.7692 151.273 29.6596 149.401 29.6596H144.196V26.0294H148.693C148.967 26.0294 149.173 25.9381 149.355 25.6413L142.734 10.2988H147.072L151.182 21.2577H151.524L155.2 10.2988H159.31Z" fill="white"/>
<path d="M22.4201 30H7.57991C3.40183 30 0 26.5982 0 22.4201V7.57991C0 3.40183 3.40183 0 7.57991 0H22.4201C26.5982 0 30 3.40183 30 7.57991V22.4201C30 26.5982 26.5982 30 22.4201 30ZM7.57991 0.684932C3.76712 0.684932 0.684932 3.76712 0.684932 7.57991V22.4201C0.684932 26.2329 3.76712 29.3151 7.57991 29.3151H22.4201C26.2329 29.3151 29.3151 26.21 29.3151 22.4201V7.57991C29.3151 3.76712 26.21 0.684932 22.4201 0.684932H7.57991Z" fill="white"/>
<path d="M17.0061 22.0765V17.3505H12.9878V22.0765H9.92847L13.6499 25.798C14.4034 26.5514 15.6134 26.5514 16.3668 25.798L20.0883 22.0765H17.0061ZM7.91934 20.0674V9.9076L4.19788 13.6519C3.44446 14.4053 3.44446 15.6154 4.19788 16.3688L7.91934 20.0674ZM12.9878 7.92129V12.6473H17.0061V7.92129H20.0655L16.344 4.19983C15.5906 3.44641 14.3805 3.44641 13.6271 4.19983L9.92847 7.92129H12.9878ZM25.8189 13.6519L22.0974 9.93043V20.0902L25.8189 16.3688C26.5495 15.5925 26.5495 14.3825 25.8189 13.6519Z" fill="white"/>
</g>
<defs>
<clipPath id="clip0_1370_2438">
<rect width="160" height="30" fill="white"/>
</clipPath>
</defs>
</svg>
